<svg width="24" height="24" viewBox="0 0 24 24" fill="none" xmlns="http://www.w3.org/2000/svg">
<path d="M9.474 5.20903C9.474 5.20903 4.973 9.71403 3.22 11.468C3.073 11.614 3 11.806 3 11.998C3 12.19 3.073 12.382 3.22 12.528C4.972 14.282 9.472 18.785 9.472 18.785C9.617 18.93 9.808 19.002 9.999 19.002C10.19 19.001 10.382 18.928 10.529 18.781C10.822 18.488 10.823 18.015 10.533 17.724L5.557 12.748H20.249C20.663 12.748 20.999 12.412 20.999 11.998C20.999 11.584 20.663 11.248 20.249 11.248H5.557L10.535 6.26903C10.824 5.98003 10.822 5.50803 10.529 5.21503C10.382 5.06803 10.19 4.99403 9.999 4.99403C9.808 4.99303 9.619 5.06503 9.474 5.20903Z" fill="black"/>
</svg>
