<svg width="18" height="16" viewBox="0 0 18 16" fill="none" xmlns="http://www.w3.org/2000/svg">
<path d="M6.474 1.20891C6.474 1.20891 1.973 5.71391 0.22 7.46791C0.073 7.61391 0 7.80591 0 7.99791C0 8.18991 0.073 8.38191 0.22 8.52791C1.972 10.2819 6.472 14.7849 6.472 14.7849C6.617 14.9299 6.808 15.0019 6.999 15.0019C7.19 15.0009 7.382 14.9279 7.529 14.7809C7.822 14.4879 7.823 14.0149 7.533 13.7239L2.557 8.74791H17.249C17.663 8.74791 17.999 8.41191 17.999 7.99791C17.999 7.58391 17.663 7.24791 17.249 7.24791H2.557L7.535 2.26891C7.824 1.97991 7.822 1.50791 7.529 1.21491C7.382 1.06791 7.19 0.993907 6.999 0.993907C6.808 0.992907 6.619 1.06491 6.474 1.20891Z" fill="white"/>
</svg>
