<?xml version="1.0" standalone="no"?>
<!DOCTYPE svg PUBLIC "-//W3C//DTD SVG 20010904//EN"
 "http://www.w3.org/TR/2001/REC-SVG-20010904/DTD/svg10.dtd">
<svg version="1.0" xmlns="http://www.w3.org/2000/svg"
 width="350.000000pt" height="350.000000pt" viewBox="0 0 350.000000 350.000000"
 preserveAspectRatio="xMidYMid meet">
<metadata>
Created by potrace 1.14, written by Peter Selinger 2001-2017
</metadata>
<g transform="translate(0.000000,350.000000) scale(0.100000,-0.100000)"
fill="#000000" stroke="none">
<path d="M265 2038 l-95 -93 0 -133 0 -133 92 -92 92 -92 132 -1 133 -1 93 92
94 93 1 132 2 132 -96 94 -95 94 -130 0 -129 0 -94 -92z m367 -85 l58 -57 0
-84 0 -85 -59 -58 -59 -59 -84 0 -84 0 -58 59 -58 59 0 82 0 83 58 58 58 59
85 0 85 0 58 -57z"/>
<path d="M417 1882 c-21 -22 -27 -38 -27 -72 0 -91 91 -132 167 -74 29 22 33
30 33 73 0 39 -5 52 -28 74 -40 39 -107 38 -145 -1z"/>
<path d="M2146 1940 c-14 -5 -20 -16 -20 -41 -1 -33 -2 -34 -42 -31 -51 4 -64
-10 -70 -80 -6 -67 10 -100 54 -109 18 -4 35 -3 37 2 3 4 20 5 38 2 l32 -5 0
130 c0 72 -3 133 -5 135 -3 3 -14 1 -24 -3z m-27 -132 c5 -13 7 -30 5 -38 -1
-8 -3 -20 -3 -26 -1 -18 -32 -26 -47 -13 -8 6 -14 26 -14 43 0 53 43 77 59 34z"/>
<path d="M2830 1940 c-12 -7 -15 -32 -15 -132 l0 -123 25 -3 c23 -3 26 1 25
29 0 45 19 47 45 4 17 -27 28 -35 51 -35 l29 0 -17 28 c-9 15 -22 34 -28 42
-26 33 -24 49 6 82 l30 33 -27 3 c-21 3 -33 -4 -51 -27 -14 -17 -28 -31 -32
-31 -5 0 -7 27 -6 60 2 62 -9 85 -35 70z"/>
<path d="M918 1815 c-3 -136 -5 -133 55 -134 9 0 29 -1 44 -2 39 -2 63 32 63
90 0 25 -3 56 -6 67 -7 28 -42 43 -76 33 -27 -7 -28 -6 -28 32 0 35 -3 39 -24
39 l-25 0 -3 -125z m109 -2 c5 -10 8 -25 7 -33 -1 -8 -2 -23 -3 -32 -1 -22
-41 -35 -52 -17 -13 20 -11 73 3 87 17 17 36 15 45 -5z"/>
<path d="M1163 1865 c-36 -15 -57 -61 -50 -109 6 -44 19 -61 55 -74 34 -12 97
6 97 28 0 11 -10 14 -38 12 -37 -3 -67 10 -67 29 0 5 28 9 61 9 l62 0 -6 36
c-11 65 -57 93 -114 69z m57 -39 c0 -2 3 -11 6 -19 4 -11 -3 -14 -30 -13 -33
1 -45 13 -29 29 7 8 53 10 53 3z"/>
<path d="M1396 1872 c-3 -3 -22 -5 -41 -4 -19 1 -36 -2 -36 -6 -1 -4 -2 -47
-3 -95 l-1 -88 25 3 c24 3 25 6 25 63 0 71 9 89 41 82 25 -4 50 15 40 31 -7
12 -43 22 -50 14z"/>
<path d="M1566 1872 c-3 -3 -25 -5 -48 -4 l-43 2 0 -95 0 -95 26 0 c25 0 25 2
23 60 -2 70 14 102 43 84 18 -11 20 -21 22 -101 1 -39 3 -43 26 -43 24 0 24 1
21 79 -1 44 -8 86 -15 94 -13 16 -47 28 -55 19z"/>
<path d="M2495 1874 c-5 -1 -22 -5 -37 -8 -27 -6 -45 -36 -39 -66 4 -21 41
-48 60 -44 21 6 45 -11 37 -25 -9 -13 -45 -14 -66 -2 -10 7 -18 4 -28 -10 -17
-25 -16 -26 34 -37 53 -12 101 6 110 41 9 39 -11 66 -57 73 -21 4 -42 10 -45
15 -8 13 29 27 51 19 19 -7 45 4 45 20 0 9 -50 28 -65 24z"/>
<path d="M2684 1872 c-34 -5 -57 -38 -62 -90 -3 -41 0 -53 19 -75 40 -44 114
-35 136 17 12 26 8 88 -6 114 -12 23 -56 39 -87 34z m46 -66 c18 -49 -6 -100
-38 -80 -19 13 -25 84 -8 96 20 14 36 8 46 -16z"/>
<path d="M3050 1871 c-23 -6 -26 -12 -21 -40 0 -5 19 -7 41 -4 26 4 40 2 40
-6 0 -6 0 -14 0 -18 0 -5 -17 -9 -37 -9 -63 -3 -89 -59 -49 -102 13 -13 20
-14 96 -10 l45 3 0 60 c1 97 -11 119 -72 129 -10 2 -29 0 -43 -3z m63 -131
c-6 -21 -47 -28 -58 -10 -10 17 5 30 35 30 23 0 27 -3 23 -20z"/>
<path d="M3296 1872 c-3 -3 -24 -5 -46 -4 -45 2 -42 9 -41 -107 0 -72 10 -95
35 -85 7 3 12 33 13 71 2 73 13 94 41 77 13 -8 18 -28 20 -78 3 -63 4 -66 27
-66 24 0 25 2 25 73 0 48 -5 80 -15 94 -14 21 -49 36 -59 25z"/>
<path d="M1684 1859 c-11 -18 13 -33 53 -33 54 -1 52 -29 -2 -34 -52 -5 -65
-17 -65 -58 0 -24 6 -37 23 -46 12 -7 27 -11 32 -9 6 1 31 3 57 2 l47 0 -2 80
c-2 67 -6 83 -22 95 -22 16 -111 19 -121 3z m94 -116 c-3 -19 -30 -28 -53 -19
-25 9 -5 36 27 36 23 0 29 -4 26 -17z"/>
<path d="M1870 1774 c0 -94 0 -94 25 -94 24 0 25 2 25 69 0 61 3 70 20 76 11
3 24 4 29 1 12 -8 43 23 36 34 -3 5 -35 9 -70 9 l-65 -1 0 -94z"/>
<path d="M2219 1828 c-4 -136 4 -147 97 -146 l64 0 0 94 c0 94 0 94 -25 94
-24 0 -25 -2 -25 -64 0 -67 -13 -92 -44 -80 -17 6 -18 16 -19 97 0 43 -2 47
-23 47 -21 0 -24 -5 -25 -42z"/>
<path d="M1933 1535 c-9 -24 1 -27 15 -5 8 13 8 20 2 20 -6 0 -13 -7 -17 -15z"/>
<path d="M2009 1539 c-1 -2 -2 -33 -3 -68 -1 -64 10 -91 37 -91 7 0 4 6 -5 14
-13 9 -17 27 -16 74 1 34 -2 65 -5 69 -4 3 -7 4 -8 2z"/>
<path d="M2070 1459 c0 -52 4 -78 10 -74 6 4 8 10 5 14 -2 5 1 16 8 25 12 16
14 15 26 -8 8 -14 20 -27 28 -30 10 -4 8 5 -7 29 -21 35 -21 37 -5 55 10 11
13 20 7 20 -6 0 -15 -6 -19 -12 -4 -7 -15 -18 -23 -25 -13 -10 -15 -5 -14 38
0 27 -3 49 -8 49 -4 0 -8 -36 -8 -81z"/>
<path d="M2419 1524 c-4 -60 3 -129 14 -136 15 -9 21 -2 11 14 -5 7 -9 39 -10
71 -1 54 -13 93 -15 51z"/>
<path d="M1488 1513 c-8 -35 4 -121 18 -127 7 -3 16 -1 19 4 4 6 0 10 -8 10
-18 0 -16 68 3 80 13 8 12 10 -3 10 -10 0 -16 4 -13 8 2 4 1 14 -3 21 -6 9 -9
8 -13 -6z"/>
<path d="M2240 1513 c0 -13 -6 -23 -12 -23 -9 0 -9 -3 -3 -8 6 -4 12 -18 13
-32 2 -46 12 -70 28 -70 14 0 15 2 3 17 -19 22 -18 76 1 85 12 5 11 7 -3 7
-10 1 -16 5 -13 9 2 4 1 14 -5 22 -7 12 -9 10 -9 -7z"/>
<path d="M2713 1510 c-6 -14 -8 -29 -4 -35 4 -5 6 -25 5 -43 -2 -23 3 -35 17
-42 13 -7 19 -7 19 0 0 5 -4 10 -10 10 -5 0 -10 18 -10 40 0 25 5 40 13 40 8
0 9 2 1 8 -7 4 -14 16 -16 27 -5 18 -6 18 -15 -5z"/>
<path d="M943 1484 c-16 -12 -15 -13 15 -8 28 6 32 4 32 -15 0 -17 -4 -21 -19
-16 -23 7 -52 -20 -45 -40 7 -16 9 -17 54 -19 31 -1 31 -1 28 48 -2 39 -7 50
-25 57 -13 5 -28 3 -40 -7z m50 -70 c-7 -18 -53 -18 -53 0 0 17 18 25 42 18 9
-2 14 -10 11 -18z"/>
<path d="M1156 1474 c-28 -41 -2 -96 42 -90 28 4 24 22 -5 21 -25 0 -28 3 -28
35 0 32 2 35 28 33 15 -1 27 2 27 8 0 5 -3 9 -7 10 -5 0 -16 2 -25 4 -9 2 -24
-7 -32 -21z"/>
<path d="M1391 1490 c-22 -5 -25 -12 -26 -53 -1 -26 2 -50 7 -53 4 -3 8 10 8
30 0 44 9 66 26 66 17 0 30 -28 28 -63 0 -15 3 -30 7 -33 5 -3 9 17 9 43 0 54
-18 74 -59 63z"/>
<path d="M1726 1491 c-8 -14 -4 -151 5 -156 5 -4 9 8 9 25 0 25 3 30 18 26 36
-11 60 29 47 80 -3 16 -14 23 -41 26 -19 2 -37 2 -38 -1z m62 -28 c10 -19 6
-40 -11 -61 -8 -10 -13 -9 -28 4 -10 9 -16 22 -13 30 2 8 6 21 9 29 6 20 32
19 43 -2z"/>
<path d="M1905 1483 c-23 -23 -23 -71 1 -89 15 -12 64 -7 64 6 0 4 -12 5 -26
2 -16 -3 -29 1 -34 9 -13 20 -2 30 30 24 33 -6 41 2 30 31 -11 27 -46 37 -65
17z m48 -17 c7 -17 -10 -25 -35 -18 -21 5 -12 32 12 32 10 0 20 -6 23 -14z"/>
<path d="M2323 1489 c-33 -12 -28 -20 7 -12 19 3 30 1 30 -6 0 -18 -5 -26 -14
-23 -21 7 -46 -11 -46 -34 0 -13 3 -24 8 -25 4 0 16 -2 26 -4 43 -8 55 14 47
87 -2 15 -37 25 -58 17z m47 -68 c0 -18 -24 -30 -42 -20 -23 12 -23 26 0 31
20 5 42 -1 42 -11z"/>
<path d="M2500 1487 c-32 -16 -41 -81 -13 -95 27 -13 56 -9 61 8 3 11 2 12 -8
4 -6 -7 -20 -9 -31 -7 -24 7 -27 70 -3 80 22 8 44 -15 24 -27 -8 -5 -18 -6
-22 -4 -4 3 -8 0 -8 -5 0 -6 10 -9 23 -7 12 3 25 5 30 5 12 1 8 18 -10 40 -16
18 -21 19 -43 8z"/>
<path d="M1053 1478 c-23 -37 0 -98 35 -92 6 1 17 2 22 3 23 3 8 17 -17 16
-25 0 -28 3 -28 35 0 32 2 35 28 33 15 -1 27 2 27 8 0 14 -58 11 -67 -3z"/>
<path d="M1255 1480 c-11 -18 -8 -69 5 -85 15 -17 39 -19 60 -4 12 9 11 10 -7
6 -29 -6 -64 19 -45 31 8 5 24 8 38 6 19 -2 24 2 24 21 0 31 -59 51 -75 25z
m55 -15 c11 -13 8 -15 -19 -15 -31 0 -42 14 -18 23 20 9 24 8 37 -8z"/>
<path d="M1611 1472 c-5 -10 -8 -27 -6 -38 2 -10 4 -24 4 -30 1 -17 41 -25 63
-13 18 10 24 51 12 83 -9 22 -61 21 -73 -2z m59 -11 c18 -34 -11 -81 -37 -59
-17 13 -17 65 0 71 21 9 26 7 37 -12z"/>
<path d="M2590 1433 c0 -60 13 -66 16 -6 3 42 14 56 37 47 12 -4 17 -18 17
-51 0 -24 4 -42 8 -39 10 6 9 77 -2 94 -4 7 -23 12 -42 12 l-34 0 0 -57z"/>
</g>
</svg>
